<?xml version="1.0" encoding="UTF-8" standalone="no"?>
<svg
   version="1.1"
   viewBox="0 0 3576.406347269497 728.05403818834"
   width="3576.406347269497"
   height="728.05403818834"
   id="svg57"
   sodipodi:docname="brainflow.svg"
   inkscape:export-filename="brainflow.pdf"
   inkscape:export-xdpi="96"
   inkscape:export-ydpi="96"
   inkscape:version="1.3.2 (091e20e, 2023-11-25)"
   xmlns:inkscape="http://www.inkscape.org/namespaces/inkscape"
   xmlns:sodipodi="http://sodipodi.sourceforge.net/DTD/sodipodi-0.dtd"
   xmlns="http://www.w3.org/2000/svg"
   xmlns:svg="http://www.w3.org/2000/svg">
  <sodipodi:namedview
     id="namedview57"
     pagecolor="#ffffff"
     bordercolor="#000000"
     borderopacity="0.25"
     inkscape:showpageshadow="2"
     inkscape:pageopacity="0.0"
     inkscape:pagecheckerboard="0"
     inkscape:deskcolor="#d1d1d1"
     inkscape:zoom="0.34244102"
     inkscape:cx="1268.8316"
     inkscape:cy="554.84006"
     inkscape:window-width="1392"
     inkscape:window-height="1027"
     inkscape:window-x="0"
     inkscape:window-y="25"
     inkscape:window-maximized="0"
     inkscape:current-layer="svg57" />
  <!-- svg-source:excalidraw -->
  <defs
     id="defs1">
    <style
       class="style-fonts"
       id="style1">
      @font-face {
        font-family: &quot;Virgil&quot;;
        src: url(&quot;https://file%2B.vscode-resource.vscode-cdn.net/Users/anselmweber/.vscode/extensions/pomdtr.excalidraw-editor-3.7.4/public//dist/excalidraw-assets/Virgil.woff2&quot;);
      }
      @font-face {
        font-family: &quot;Cascadia&quot;;
        src: url(&quot;https://file%2B.vscode-resource.vscode-cdn.net/Users/anselmweber/.vscode/extensions/pomdtr.excalidraw-editor-3.7.4/public//dist/excalidraw-assets/Cascadia.woff2&quot;);
      }
      @font-face {
        font-family: &quot;Assistant&quot;;
        src: url(&quot;https://file%2B.vscode-resource.vscode-cdn.net/Users/anselmweber/.vscode/extensions/pomdtr.excalidraw-editor-3.7.4/public//dist/excalidraw-assets/Assistant-Regular.woff2&quot;);
      }
    </style>
  </defs>
  <rect
     x="0"
     y="0"
     width="3576.406347269497"
     height="728.05403818834"
     fill="#ffffff"
     id="rect1" />
  <g
     stroke-linecap="round"
     transform="translate(10 14.105968418289194) rotate(0 525.8523918358349 351.9740348850254)"
     id="g1">
    <path
       d="M32 0 C375.24 5.01, 719.23 2.97, 1019.7 0 M32 0 C257.57 -1.92, 481.36 -2.04, 1019.7 0 M1019.7 0 C1037.58 1.06, 1054.72 7.66, 1051.7 32 M1019.7 0 C1037.72 -1.77, 1053.87 14.28, 1051.7 32 M1051.7 32 C1048.64 242.73, 1048.93 455.88, 1051.7 671.95 M1051.7 32 C1057.31 286.83, 1055.92 541.01, 1051.7 671.95 M1051.7 671.95 C1055.47 693.13, 1043.87 705.82, 1019.7 703.95 M1051.7 671.95 C1052.94 693.91, 1037.58 705.13, 1019.7 703.95 M1019.7 703.95 C746.35 707.6, 469.51 705.48, 32 703.95 M1019.7 703.95 C650.31 699.06, 280.31 699.62, 32 703.95 M32 703.95 C9.91 706.78, 2.05 689.89, 0 671.95 M32 703.95 C14.75 704.5, 2.41 694.08, 0 671.95 M0 671.95 C-0.65 428.69, -2.02 187.37, 0 32 M0 671.95 C2.11 487.03, 3.1 301.37, 0 32 M0 32 C2.67 10.98, 11.5 2.46, 32 0 M0 32 C1.54 6.46, 9.23 -1.23, 32 0"
       stroke="#1e1e1e"
       stroke-width="4"
       fill="none"
       id="path1" />
  </g>
  <g
     stroke-linecap="round"
     transform="translate(1492.8967441301038 10) rotate(0 643.218514635435 351.9740348850254)"
     id="g2">
    <path
       d="M32 0 C330.94 -5.13, 627.94 -4.08, 1254.44 0 M32 0 C436.55 -6.62, 841.93 -6.86, 1254.44 0 M1254.44 0 C1278.78 -3, 1283.55 9.13, 1286.44 32 M1254.44 0 C1277.94 3.62, 1287.89 6.8, 1286.44 32 M1286.44 32 C1291.92 214.81, 1291.96 400.22, 1286.44 671.95 M1286.44 32 C1289.42 206.29, 1290.97 380.75, 1286.44 671.95 M1286.44 671.95 C1289.27 695.16, 1276.85 704.5, 1254.44 703.95 M1286.44 671.95 C1282.98 694.46, 1274.75 700.79, 1254.44 703.95 M1254.44 703.95 C844.83 708.71, 439.22 711.39, 32 703.95 M1254.44 703.95 C966.14 707.49, 679.06 707.27, 32 703.95 M32 703.95 C12.71 700.56, 3.55 693.76, 0 671.95 M32 703.95 C13.08 704.75, 3.65 694.64, 0 671.95 M0 671.95 C-3.25 500.09, -2.91 325.25, 0 32 M0 671.95 C5.09 454.65, 5.39 238.67, 0 32 M0 32 C0.84 13.13, 12.01 -3.66, 32 0 M0 32 C-1.44 9.44, 15.14 -2.59, 32 0"
       stroke="#1e1e1e"
       stroke-width="4"
       fill="none"
       id="path2" />
  </g>
  <g
     stroke-linecap="round"
     id="g6">
    <g
       transform="translate(389.8568432596469 235.81641319936625) rotate(0 129.54561031589787 -1.5819913240790129)"
       id="g3">
      <path
         d="M-2.51 -2.02 C21.99 -2.51, 104.18 -2.85, 148.08 -2.28 C191.98 -1.71, 242.81 0.85, 260.87 1.39 M1.32 3.06 C25.29 1.62, 102.35 -5.8, 145.47 -6.81 C188.59 -7.83, 241.68 -3.47, 260.03 -3.04"
         stroke="#1e1e1e"
         stroke-width="4"
         fill="none"
         id="path3" />
    </g>
    <g
       transform="translate(389.8568432596469 235.81641319936625) rotate(0 129.54561031589787 -1.5819913240790129)"
       id="g4">
      <path
         d="M228.49 4.87 C242.27 5.9, 253.58 -3.47, 262.29 -6.5 M229.93 5.08 C241.53 4.95, 250.58 -1.21, 259.76 -1.49"
         stroke="#1e1e1e"
         stroke-width="4"
         fill="none"
         id="path4" />
    </g>
    <g
       transform="translate(389.8568432596469 235.81641319936625) rotate(0 129.54561031589787 -1.5819913240790129)"
       id="g5">
      <path
         d="M229.48 -15.63 C243.03 -7.7, 254 -10.14, 262.29 -6.5 M230.92 -15.42 C242.51 -8.87, 251.23 -8.33, 259.76 -1.49"
         stroke="#1e1e1e"
         stroke-width="4"
         fill="none"
         id="path5" />
    </g>
  </g>
  <mask
     id="mask6" />
  <g
     stroke-linecap="round"
     id="g10">
    <g
       transform="translate(900.1941898570399 243.66267798638273) rotate(0 239.54552259028355 -7.723476401127641)"
       id="g7">
      <path
         d="M-0.68 0.88 C35.82 0.04, 137.01 -4.63, 216.53 -7.09 C296.04 -9.54, 433.06 -12.59, 476.41 -13.86"
         stroke="#1e1e1e"
         stroke-width="4.5"
         fill="none"
         stroke-dasharray="8 12"
         id="path6" />
    </g>
    <g
       transform="translate(900.1941898570399 243.66267798638273) rotate(0 239.54552259028355 -7.723476401127641)"
       id="g8">
      <path
         d="M449.76 -0.33 C457.42 -8.87, 462.66 -10.82, 477.47 -10.85"
         stroke="#1e1e1e"
         stroke-width="4.5"
         fill="none"
         id="path7" />
    </g>
    <g
       transform="translate(900.1941898570399 243.66267798638273) rotate(0 239.54552259028355 -7.723476401127641)"
       id="g9">
      <path
         d="M449.23 -20.85 C456.7 -25.07, 462.06 -22.7, 477.47 -10.85"
         stroke="#1e1e1e"
         stroke-width="4.5"
         fill="none"
         id="path8" />
    </g>
  </g>
  <mask
     id="mask10" />
  <g
     stroke-linecap="round"
     transform="translate(146.91981088967475 146.69727681740187) rotate(0 115.52693902493792 95.27145763660587)"
     id="g11">
    <path
       d="M21.68 41.83 C27.4 32.12, 38.72 20.92, 50.09 14.47 C61.46 8.03, 75.8 5.3, 89.9 3.17 C104 1.05, 121.08 0.2, 134.68 1.74 C148.28 3.28, 159.43 7.12, 171.49 12.43 C183.54 17.75, 197.66 24.74, 206.99 33.61 C216.32 42.48, 223.18 54.07, 227.48 65.63 C231.78 77.2, 234.05 91.17, 232.8 102.98 C231.55 114.78, 226 126.69, 219.99 136.46 C213.98 146.23, 206.65 153.52, 196.73 161.59 C186.8 169.65, 173.36 179.79, 160.44 184.84 C147.51 189.9, 132.86 191.77, 119.15 191.91 C105.45 192.06, 91.27 189.99, 78.2 185.7 C65.14 181.42, 51.39 173.81, 40.75 166.19 C30.1 158.58, 21.2 149.74, 14.33 140 C7.46 130.27, 1.12 118.88, -0.48 107.78 C-2.07 96.67, -7.08 90.4, 4.76 73.36 C16.59 56.31, 48.26 16.81, 70.51 5.5 C92.75 -5.82, 137.41 3.78, 138.21 5.48 M147.04 5.87 C160.92 6.56, 175.46 10.28, 187.07 16.94 C198.67 23.6, 209.39 35.53, 216.67 45.82 C223.94 56.11, 228.29 67.31, 230.75 78.68 C233.2 90.05, 234.4 102.61, 231.38 114.05 C228.36 125.5, 220.51 137.95, 212.6 147.37 C204.69 156.79, 194.59 164.02, 183.93 170.57 C173.27 177.12, 162.16 183.24, 148.63 186.69 C135.09 190.13, 117.35 192.27, 102.71 191.26 C88.06 190.24, 72.76 186.33, 60.76 180.59 C48.76 174.85, 39.23 165.3, 30.71 156.79 C22.19 148.29, 14.64 139.56, 9.63 129.55 C4.62 119.54, 0.74 108.69, 0.63 96.72 C0.52 84.75, 4.16 68.86, 8.98 57.74 C13.8 46.62, 19.81 38.26, 29.54 29.99 C39.27 21.72, 54.34 13.37, 67.38 8.12 C80.42 2.87, 94.12 -0.62, 107.78 -1.52 C121.43 -2.43, 142.68 2.01, 149.32 2.7 C155.97 3.38, 148.88 1.18, 147.67 2.58"
       stroke="#1e1e1e"
       stroke-width="4"
       fill="none"
       id="path10" />
  </g>
  <g
     transform="translate(209.9677615423784 210.46446061929464) rotate(0 46.033973693847656 27.22495408559962)"
     id="g12">
    <text
       x="46.033973693847656"
       y="0"
       font-family="Helvetica, Segoe UI Emoji"
       font-size="47.34774623582542px"
       fill="#1e1e1e"
       text-anchor="middle"
       style="white-space: pre;"
       direction="ltr"
       dominant-baseline="text-before-edge"
       id="text11">A/D </text>
  </g>
  <g
     transform="translate(137.45463006906834 372.9678776107178) rotate(0 145.0634765625 41.39999999999998)"
     id="g13">
    <text
       x="0"
       y="0"
       font-family="Helvetica, 'Segoe UI Emoji'"
       font-size="36px"
       fill="#1e1e1e"
       text-anchor="start"
       style="font-style:normal;font-variant:normal;font-weight:normal;font-stretch:normal;font-family:'.Lucida Grande UI';-inkscape-font-specification:'.Lucida Grande UI';white-space:pre"
       direction="ltr"
       dominant-baseline="text-before-edge"
       id="text12"><tspan
         sodipodi:role="line"
         id="tspan58"
         x="0"
         y="0">200 Hz Sampling Rate</tspan></text>
    <text
       x="0"
       y="41.400002"
       font-family="Helvetica, 'Segoe UI Emoji'"
       font-size="36px"
       fill="#1e1e1e"
       text-anchor="start"
       style="font-style:normal;font-variant:normal;font-weight:normal;font-stretch:normal;font-family:'.Lucida Grande UI';-inkscape-font-specification:'.Lucida Grande UI';white-space:pre"
       direction="ltr"
       dominant-baseline="text-before-edge"
       id="text13">19 bit Auflösung</text>
  </g>
  <g
     stroke-linecap="round"
     transform="translate(658.7522032237003 159.40342556385076) rotate(0 115.53514603808509 88.18333768366642)"
     id="g14">
    <path
       d="M40.74 22.65 C49.32 14.75, 60.91 9.23, 73.96 5.15 C87.01 1.08, 104.54 -1.95, 119.05 -1.83 C133.56 -1.71, 148.05 1.23, 161.01 5.87 C173.96 10.5, 187.06 18.35, 196.77 25.99 C206.48 33.63, 213.49 42.78, 219.27 51.7 C225.04 60.63, 230.32 68.89, 231.42 79.54 C232.51 90.2, 230.01 104.91, 225.85 115.64 C221.69 126.37, 214.83 135.79, 206.46 143.93 C198.09 152.07, 187.51 159.53, 175.61 164.48 C163.72 169.42, 148.89 172.01, 135.1 173.62 C121.32 175.23, 106.79 175.9, 92.89 174.13 C78.98 172.37, 63.25 168.5, 51.68 163.04 C40.11 157.57, 31.72 150.26, 23.47 141.33 C15.21 132.4, 5.68 119.58, 2.13 109.43 C-1.42 99.29, 0.57 90.81, 2.17 80.48 C3.77 70.14, 3.67 58.54, 11.71 47.45 C19.75 36.35, 41.62 19.92, 50.42 13.91 C59.22 7.91, 63.27 9.77, 64.51 11.44 M30.48 30.36 C37.83 21.97, 52.82 15.48, 64.76 10.77 C76.7 6.07, 88.83 3.58, 102.13 2.12 C115.42 0.66, 130.61 -0.4, 144.52 2.02 C158.44 4.44, 174.52 10.02, 185.62 16.63 C196.71 23.25, 204.38 32.69, 211.09 41.71 C217.81 50.74, 222.7 60.98, 225.9 70.8 C229.11 80.62, 231.84 90.15, 230.31 100.62 C228.79 111.09, 223.91 123.81, 216.74 133.63 C209.56 143.45, 198.4 153.5, 187.27 159.54 C176.14 165.57, 163.53 167.23, 149.95 169.86 C136.37 172.49, 119.35 175.94, 105.79 175.31 C92.24 174.68, 80.62 170.82, 68.63 166.06 C56.64 161.3, 43.58 154.37, 33.85 146.74 C24.11 139.12, 15.73 130.33, 10.21 120.31 C4.68 110.29, 1.62 97.35, 0.72 86.61 C-0.19 75.88, -0.03 65.47, 4.77 55.9 C9.57 46.32, 25.18 33.03, 29.5 29.18 C33.83 25.32, 29.64 31.91, 30.74 32.76"
       stroke="#1e1e1e"
       stroke-width="4"
       fill="none"
       id="path13" />
  </g>
  <g
     transform="translate(740.0692030953774 227.03172718373332) rotate(0 34.0224609375 20.69999999999999)"
     id="g15">
    <text
       x="34.0224609375"
       y="0"
       font-family="Helvetica, Segoe UI Emoji"
       font-size="36px"
       fill="#1e1e1e"
       text-anchor="middle"
       style="white-space: pre;"
       direction="ltr"
       dominant-baseline="text-before-edge"
       id="text14">BLE</text>
  </g>
  <g
     transform="translate(600.0627867913877 368.98405598942827) rotate(0 204.08203125 124.20000000000005)"
     id="g20">
    <text
       x="0"
       y="0"
       font-family="Helvetica, Segoe UI Emoji"
       font-size="36px"
       fill="#1e1e1e"
       text-anchor="start"
       style="white-space: pre;"
       direction="ltr"
       dominant-baseline="text-before-edge"
       id="text15">Bluetooth Low Energy</text>
    <text
       x="0"
       y="41.4"
       font-family="Helvetica, Segoe UI Emoji"
       font-size="36px"
       fill="#1e1e1e"
       text-anchor="start"
       style="white-space: pre;"
       direction="ltr"
       dominant-baseline="text-before-edge"
       id="text16" />
    <text
       x="0"
       y="82.8"
       font-family="Helvetica, Segoe UI Emoji"
       font-size="36px"
       fill="#1e1e1e"
       text-anchor="start"
       style="white-space: pre;"
       direction="ltr"
       dominant-baseline="text-before-edge"
       id="text17">Zwei Samples pro Packet</text>
    <text
       x="0"
       y="124.2"
       font-family="Helvetica, 'Segoe UI Emoji'"
       font-size="36px"
       fill="#1e1e1e"
       text-anchor="start"
       style="white-space:pre"
       direction="ltr"
       dominant-baseline="text-before-edge"
       id="text18"><tspan
         style="font-style:normal;font-variant:normal;font-weight:normal;font-stretch:normal;font-family:'.Lucida Grande UI';-inkscape-font-specification:'.Lucida Grande UI'"
         id="tspan59">200 Packete </tspan></text>
    <text
       x="0"
       y="165.6"
       font-family="Helvetica, Segoe UI Emoji"
       font-size="36px"
       fill="#1e1e1e"
       text-anchor="start"
       style="white-space: pre;"
       direction="ltr"
       dominant-baseline="text-before-edge"
       id="text19">pro Sekunde</text>
    <text
       x="0"
       y="207"
       font-family="Helvetica, Segoe UI Emoji"
       font-size="36px"
       fill="#1e1e1e"
       text-anchor="start"
       style="white-space: pre;"
       direction="ltr"
       dominant-baseline="text-before-edge"
       id="text20" />
  </g>
  <g
     stroke-linecap="round"
     transform="translate(1393.0236196368667 166.7398594651754) rotate(0 115.53514603808514 70.5)"
     id="g21">
    <path
       d="M144.38 2.69 C158.83 3.38, 173.93 7.39, 185.56 12.61 C197.19 17.82, 206.61 25.81, 214.18 34 C221.75 42.18, 228.68 52.56, 230.99 61.71 C233.29 70.85, 231.46 80.62, 227.98 88.87 C224.5 97.12, 219.01 104.47, 210.08 111.21 C201.15 117.95, 187.56 124.36, 174.39 129.32 C161.22 134.28, 145.15 139.33, 131.05 140.99 C116.96 142.65, 103.6 141.37, 89.82 139.28 C76.04 137.19, 60.25 134.06, 48.37 128.44 C36.49 122.82, 26.15 113.64, 18.55 105.57 C10.95 97.5, 5.1 88.51, 2.79 80.02 C0.47 71.53, 1.48 63.17, 4.67 54.63 C7.85 46.1, 13.07 35.99, 21.9 28.82 C30.74 21.64, 44.92 16.28, 57.68 11.59 C70.44 6.91, 79.44 0.78, 98.45 0.72 C117.45 0.65, 155.41 7.49, 171.7 11.2 C187.99 14.91, 197.22 22.51, 196.19 22.97 M175.57 9.23 C187.5 12.68, 197.83 21.42, 206.5 28.97 C215.17 36.53, 223.35 45.41, 227.58 54.56 C231.8 63.72, 233.72 74.78, 231.83 83.89 C229.94 93.01, 224.66 101.75, 216.22 109.27 C207.79 116.79, 193.1 124.21, 181.22 129 C169.34 133.78, 158.48 136.29, 144.95 137.97 C131.42 139.65, 114.67 139.83, 100.04 139.09 C85.41 138.34, 70.58 137.75, 57.18 133.5 C43.78 129.25, 28.7 121.06, 19.62 113.6 C10.54 106.14, 5.54 97.71, 2.72 88.75 C-0.09 79.8, 0.37 69.2, 2.72 59.86 C5.08 50.52, 9.16 40.97, 16.83 32.72 C24.49 24.48, 36.95 15.76, 48.71 10.39 C60.47 5.02, 73.59 1.93, 87.4 0.51 C101.2 -0.91, 116.96 -0.05, 131.53 1.87 C146.1 3.79, 168 10.88, 174.82 12.04 C181.63 13.21, 173.26 8.46, 172.41 8.86"
       stroke="none"
       stroke-width="0"
       fill="#ffffff"
       id="path20" />
    <path
       d="M101.86 0 C115.56 -1.59, 133.06 1.64, 146.9 4.28 C160.74 6.92, 173.4 11.07, 184.91 15.86 C196.43 20.64, 208.54 25.15, 216.01 32.98 C223.48 40.82, 227.9 53.39, 229.76 62.87 C231.62 72.35, 230.74 81.39, 227.19 89.86 C223.64 98.34, 217.3 107.04, 208.44 113.71 C199.58 120.38, 186.82 125.53, 174.02 129.9 C161.21 134.26, 146.51 138.34, 131.63 139.91 C116.75 141.49, 98.87 141.37, 84.75 139.36 C70.63 137.34, 58.7 133.62, 46.91 127.83 C35.11 122.03, 21.37 112.23, 13.97 104.58 C6.58 96.93, 4.45 90.62, 2.53 81.93 C0.62 73.25, -1.09 61.76, 2.51 52.46 C6.11 43.16, 14.67 33.32, 24.13 26.11 C33.59 18.9, 44.77 13.39, 59.29 9.22 C73.82 5.06, 101.49 2.11, 111.28 1.11 C121.07 0.11, 118.14 2.05, 118.04 3.23 M134.67 2.67 C148.23 2.77, 163.84 5.55, 176.75 10.06 C189.65 14.57, 203.79 22, 212.11 29.71 C220.42 37.43, 224.25 47.51, 226.65 56.38 C229.04 65.25, 228.61 74.66, 226.48 82.93 C224.35 91.2, 220.99 98.4, 213.88 105.99 C206.77 113.58, 195.95 122.61, 183.84 128.47 C171.73 134.34, 155.76 139.72, 141.21 141.17 C126.65 142.62, 111.29 139.19, 96.52 137.19 C81.74 135.19, 64.67 133.83, 52.55 129.17 C40.44 124.52, 31.73 116.81, 23.83 109.27 C15.94 101.72, 8.57 92.56, 5.17 83.89 C1.78 75.22, 1.2 66.27, 3.46 57.23 C5.73 48.19, 11.54 37.35, 18.77 29.65 C26.01 21.94, 34.81 15.77, 46.86 11 C58.91 6.23, 76.29 2.38, 91.09 1.02 C105.89 -0.34, 128.56 2.82, 135.66 2.82 C142.77 2.83, 133.93 0.08, 133.72 1.04"
       stroke="#1e1e1e"
       stroke-width="4"
       fill="none"
       id="path21" />
  </g>
  <g
     transform="translate(1447.3142523210438 195.98883139152383) rotate(0 61.048828125 41.400000000000034)"
     id="g22">
    <text
       x="61.048828125"
       y="0"
       font-family="Helvetica, Segoe UI Emoji"
       font-size="36px"
       fill="#1e1e1e"
       text-anchor="middle"
       style="white-space: pre;"
       direction="ltr"
       dominant-baseline="text-before-edge"
       id="text21">Bluetoh</text>
    <text
       x="61.048828125"
       y="41.4"
       font-family="Helvetica, Segoe UI Emoji"
       font-size="36px"
       fill="#1e1e1e"
       text-anchor="middle"
       style="white-space: pre;"
       direction="ltr"
       dominant-baseline="text-before-edge"
       id="text22">Dongle</text>
  </g>
  <g
     stroke-linecap="round"
     transform="translate(2667.86284652855 165.90887982860022) rotate(0 115.53514603808503 70.5)"
     id="g23">
    <path
       d="M151.47 3.49 C165.27 5.62, 180.93 12.75, 192.18 18.88 C203.44 25, 212.31 32.69, 218.99 40.24 C225.68 47.79, 231.38 55.71, 232.28 64.18 C233.17 72.65, 229.56 82.2, 224.39 91.06 C219.21 99.91, 210.39 110.19, 201.24 117.31 C192.1 124.44, 182.15 129.68, 169.52 133.8 C156.88 137.91, 140.15 141.6, 125.44 141.98 C110.73 142.36, 95.23 139.27, 81.26 136.08 C67.28 132.89, 52.86 128.32, 41.59 122.85 C30.32 117.38, 20.64 111.1, 13.66 103.26 C6.68 95.43, 0.7 84.75, -0.29 75.84 C-1.29 66.94, 2.93 58.43, 7.68 49.86 C12.44 41.28, 19.16 31.13, 28.26 24.39 C37.35 17.65, 49.21 13.33, 62.26 9.4 C75.3 5.48, 83.73 -1.13, 106.51 0.86 C129.29 2.85, 178.89 12.05, 198.94 21.32 C218.99 30.59, 227.91 55.5, 226.83 56.48 M68.07 6.46 C80.95 2.39, 99.44 2.21, 114.63 2.21 C129.81 2.2, 146.11 3.36, 159.17 6.43 C172.23 9.51, 182.23 14.97, 193 20.67 C203.77 26.37, 216.96 32.82, 223.77 40.64 C230.59 48.45, 233.58 57.9, 233.9 67.57 C234.23 77.25, 231.83 89.82, 225.71 98.69 C219.58 107.56, 207.73 114.43, 197.15 120.79 C186.57 127.15, 175.1 133.39, 162.23 136.85 C149.36 140.31, 134.65 141.76, 119.93 141.54 C105.2 141.33, 87.71 139.36, 73.88 135.56 C60.05 131.75, 47.81 125, 36.93 118.72 C26.04 112.43, 15.12 105.4, 8.57 97.85 C2.03 90.29, -1.96 81.88, -2.34 73.38 C-2.72 64.89, 1.05 55.89, 6.29 46.86 C11.53 37.83, 18.82 26.32, 29.11 19.2 C39.4 12.08, 61.01 5.67, 68.05 4.11 C75.09 2.56, 70.29 8.57, 71.35 9.87"
       stroke="none"
       stroke-width="0"
       fill="#ffffff"
       id="path22" />
    <path
       d="M78.58 5.07 C91.09 0.69, 109.79 -2.53, 124.53 -1.82 C139.28 -1.1, 154.02 4.76, 167.07 9.36 C180.12 13.96, 192.99 19.21, 202.83 25.79 C212.67 32.36, 221.42 40.77, 226.12 48.82 C230.82 56.87, 232.18 65.27, 231.04 74.08 C229.91 82.88, 226.21 93.26, 219.33 101.66 C212.44 110.06, 200.77 118.33, 189.76 124.49 C178.75 130.65, 167.3 136.14, 153.24 138.62 C139.19 141.1, 120.12 139.91, 105.45 139.38 C90.78 138.85, 78.32 139.25, 65.23 135.44 C52.13 131.64, 36.67 123.95, 26.87 116.54 C17.08 109.13, 10.55 99.58, 6.45 91 C2.35 82.41, 1.06 73.55, 2.27 65.04 C3.47 56.53, 7.68 47.6, 13.67 39.92 C19.67 32.24, 21.12 25.44, 38.24 18.96 C55.37 12.48, 97.34 3.08, 116.43 1.05 C135.52 -0.98, 152.74 5.87, 152.78 6.77 M176.34 9.5 C189.15 13.27, 198.23 22.06, 206.27 29.35 C214.32 36.63, 220.52 45.08, 224.61 53.21 C228.7 61.33, 232.07 69.19, 230.8 78.09 C229.52 87, 224.51 98.21, 216.96 106.65 C209.41 115.09, 197.45 123.84, 185.5 128.74 C173.54 133.64, 159.77 134.26, 145.23 136.05 C130.7 137.84, 112.55 140.59, 98.28 139.49 C84 138.4, 71.72 134.24, 59.6 129.48 C47.48 124.72, 34.59 118, 25.54 110.92 C16.5 103.83, 9.28 95.85, 5.34 86.96 C1.39 78.06, 0.46 66.57, 1.86 57.55 C3.26 48.53, 6.25 40.18, 13.74 32.83 C21.23 25.48, 34.59 18.26, 46.8 13.45 C59 8.64, 73.01 6.32, 86.94 3.96 C100.88 1.6, 115.7 -1.79, 130.41 -0.71 C145.12 0.37, 167.78 8.61, 175.21 10.44 C182.64 12.26, 175.97 9.61, 174.97 10.25"
       stroke="#1e1e1e"
       stroke-width="4"
       fill="none"
       id="path23" />
  </g>
  <g
     transform="translate(2745.1984010877272 215.85785175494857) rotate(0 38.00390625 20.69999999999999)"
     id="g24">
    <text
       x="38.00390625"
       y="0"
       font-family="Helvetica, Segoe UI Emoji"
       font-size="36px"
       fill="#1e1e1e"
       text-anchor="middle"
       style="white-space: pre;"
       direction="ltr"
       dominant-baseline="text-before-edge"
       id="text23">UDP</text>
  </g>
  <g
     stroke-linecap="round"
     transform="translate(1683.0891757179504 161.3441465817823) rotate(0 115.53514603808514 88.18333768366642)"
     id="g25">
    <path
       d="M193.01 24.82 C203.87 31.16, 212.4 40.92, 218.82 50.19 C225.23 59.47, 230.14 70.39, 231.5 80.47 C232.86 90.56, 230.83 100.65, 226.97 110.7 C223.11 120.76, 216.98 131.95, 208.34 140.79 C199.69 149.64, 186.8 157.9, 175.11 163.78 C163.42 169.65, 151.95 174.44, 138.21 176.05 C124.47 177.66, 106.34 175.27, 92.69 173.45 C79.04 171.63, 68.08 170.49, 56.32 165.14 C44.56 159.79, 30.68 150.4, 22.13 141.32 C13.58 132.25, 8.29 120.96, 5.01 110.7 C1.73 100.45, 1.04 89.9, 2.45 79.78 C3.85 69.66, 7.89 59.15, 13.46 50 C19.04 40.85, 25.82 32.02, 35.9 24.86 C45.97 17.71, 60.6 10.92, 73.9 7.04 C87.21 3.16, 101.77 1.88, 115.74 1.59 C129.71 1.3, 141.09 -1.43, 157.72 5.32 C174.35 12.06, 204.39 31.64, 215.52 42.06 C226.65 52.48, 226.37 67.18, 224.51 67.84 M159.89 4.11 C173.61 6.64, 186.65 16.24, 196.74 24.22 C206.83 32.2, 214.57 42.92, 220.4 52 C226.24 61.09, 230.94 68.57, 231.74 78.72 C232.54 88.87, 228.9 102.54, 225.2 112.88 C221.49 123.22, 217.52 132.58, 209.52 140.76 C201.51 148.95, 189.34 156.46, 177.19 162.01 C165.05 167.56, 150.65 172.47, 136.65 174.06 C122.65 175.66, 107.49 173.84, 93.18 171.6 C78.87 169.36, 62.49 165.98, 50.76 160.64 C39.04 155.29, 30.61 147.52, 22.82 139.53 C15.03 131.54, 7.95 123.09, 4.02 112.7 C0.09 102.32, -2.39 87.97, -0.76 77.22 C0.86 66.47, 6.85 57.54, 13.78 48.21 C20.72 38.89, 30.43 28.67, 40.85 21.28 C51.26 13.88, 63.32 7.11, 76.27 3.85 C89.21 0.59, 104.58 0.91, 118.53 1.73 C132.47 2.54, 153.64 7.74, 159.96 8.73 C166.28 9.73, 157.34 6.43, 156.44 7.72"
       stroke="#1e1e1e"
       stroke-width="4"
       fill="none"
       id="path24" />
  </g>
  <g
     transform="translate(1755.3973865271273 208.27244820166493) rotate(0 43.03125 41.39999999999998)"
     id="g26">
    <text
       x="43.03125"
       y="0"
       font-family="Helvetica, Segoe UI Emoji"
       font-size="36px"
       fill="#1e1e1e"
       text-anchor="middle"
       style="white-space: pre;"
       direction="ltr"
       dominant-baseline="text-before-edge"
       id="text25">Read</text>
    <text
       x="43.03125"
       y="41.4"
       font-family="Helvetica, Segoe UI Emoji"
       font-size="36px"
       fill="#1e1e1e"
       text-anchor="middle"
       style="white-space: pre;"
       direction="ltr"
       dominant-baseline="text-before-edge"
       id="text26">Data</text>
  </g>
  <g
     stroke-linecap="round"
     transform="translate(1981.2811974994765 161.41073763241593) rotate(0 115.53514603808503 88.18333768366642)"
     id="g27">
    <path
       d="M209.87 36.81 C219.16 43.67, 223.96 53.92, 227.47 64.02 C230.97 74.12, 232.69 86.48, 230.89 97.4 C229.09 108.32, 222.96 119.84, 216.68 129.53 C210.39 139.23, 203.69 148.92, 193.18 155.58 C182.67 162.25, 166.66 165.73, 153.63 169.52 C140.61 173.3, 128.84 178.24, 115.01 178.28 C101.18 178.32, 83.68 174.37, 70.64 169.75 C57.61 165.14, 46.37 157.93, 36.79 150.59 C27.22 143.26, 19.04 134.87, 13.2 125.74 C7.36 116.61, 3.39 106.05, 1.74 95.82 C0.09 85.59, -0.56 74.51, 3.28 64.36 C7.12 54.2, 15.88 43.27, 24.8 34.88 C33.71 26.48, 44.76 19.71, 56.78 14 C68.79 8.3, 83.03 2.76, 96.87 0.64 C110.71 -1.49, 126.38 -1.21, 139.8 1.24 C153.22 3.69, 164.4 7.8, 177.41 15.33 C190.41 22.85, 210.15 39.21, 217.82 46.38 C225.49 53.54, 225.08 57.35, 223.43 58.31 M34.2 27.88 C42.07 19.26, 57.08 9.65, 69.53 4.89 C81.97 0.13, 94.67 -0.34, 108.88 -0.69 C123.09 -1.04, 141.04 -0.37, 154.8 2.79 C168.57 5.95, 180.94 11.4, 191.48 18.26 C202.01 25.13, 211.48 34.89, 218 43.97 C224.52 53.04, 229.32 62.33, 230.61 72.72 C231.9 83.11, 228.87 95.59, 225.71 106.33 C222.56 117.06, 219.07 127.76, 211.66 137.12 C204.25 146.49, 193.04 156.62, 181.24 162.53 C169.45 168.43, 154.33 170.27, 140.91 172.54 C127.5 174.82, 114.03 177.49, 100.78 176.17 C87.53 174.84, 73.6 170.08, 61.41 164.57 C49.22 159.07, 36.65 150.87, 27.62 143.14 C18.59 135.41, 11.67 127.61, 7.24 118.2 C2.81 108.78, 0.94 97.62, 1.06 86.66 C1.19 75.7, 2.59 62.24, 7.99 52.44 C13.4 42.64, 28.5 31.99, 33.48 27.87 C38.46 23.74, 36.13 26.59, 37.88 27.7"
       stroke="#1e1e1e"
       stroke-width="4"
       fill="none"
       id="path26" />
  </g>
  <g
     transform="translate(2032.5835489336537 208.33903925229856) rotate(0 64.037109375 41.39999999999998)"
     id="g28">
    <text
       x="64.037109375"
       y="0"
       font-family="Helvetica, Segoe UI Emoji"
       font-size="36px"
       fill="#1e1e1e"
       text-anchor="middle"
       style="white-space: pre;"
       direction="ltr"
       dominant-baseline="text-before-edge"
       id="text27">Detrend</text>
    <text
       x="64.037109375"
       y="41.4"
       font-family="Helvetica, Segoe UI Emoji"
       font-size="36px"
       fill="#1e1e1e"
       text-anchor="middle"
       style="white-space: pre;"
       direction="ltr"
       dominant-baseline="text-before-edge"
       id="text28">Data</text>
  </g>
  <g
     transform="translate(1714.3655312497917 367.2488770382897) rotate(0 105.22177124023438 35.98700595842536)"
     id="g30">
    <text
       x="0"
       y="0"
       font-family="Helvetica, 'Segoe UI Emoji'"
       font-size="31.293px"
       fill="#1e1e1e"
       text-anchor="start"
       style="font-style:normal;font-variant:normal;font-weight:normal;font-stretch:normal;font-family:'.Lucida Grande UI';-inkscape-font-specification:'.Lucida Grande UI';white-space:pre"
       direction="ltr"
       dominant-baseline="text-before-edge"
       id="text29"> 10 Samples </text>
    <text
       x="0"
       y="35.98700595842535"
       font-family="Helvetica, Segoe UI Emoji"
       font-size="31.293048659500304px"
       fill="#1e1e1e"
       text-anchor="start"
       style="white-space: pre;"
       direction="ltr"
       dominant-baseline="text-before-edge"
       id="text30"> pro Chunk</text>
  </g>
  <g
     transform="translate(1956.5269142613142 368.27887170753) rotate(0 140.85079956054688 35.98700595842536)"
     id="g32">
    <text
       x="0"
       y="0"
       font-family="Helvetica, Segoe UI Emoji"
       font-size="31.293048659500304px"
       fill="#1e1e1e"
       text-anchor="start"
       style="white-space: pre;"
       direction="ltr"
       dominant-baseline="text-before-edge"
       id="text31">Brainflow DataFilter </text>
    <text
       x="0"
       y="35.98700595842535"
       font-family="Helvetica, Segoe UI Emoji"
       font-size="31.293048659500304px"
       fill="#1e1e1e"
       text-anchor="start"
       style="white-space: pre;"
       direction="ltr"
       dominant-baseline="text-before-edge"
       id="text32" />
  </g>
  <g
     stroke-linecap="round"
     id="g36">
    <g
       transform="translate(1641.5772494051132 241.78049275357534) rotate(0 16.578782983312408 0.10859096948831848)"
       id="g33">
      <path
         d="M-0.9 0.31 C0.16 0.03, 0.97 -1.7, 6.71 -1.48 C12.46 -1.25, 29.04 1.44, 33.56 1.65 M0.82 -0.58 C1.68 -0.73, 0.26 -0.42, 5.63 -0.37 C10.99 -0.32, 28.2 -0.4, 33.01 -0.28"
         stroke="#1e1e1e"
         stroke-width="4"
         fill="none"
         id="path32" />
    </g>
    <g
       transform="translate(1641.5772494051132 241.78049275357534) rotate(0 16.578782983312408 0.10859096948831848)"
       id="g34">
      <path
         d="M20.99 3.8 C23.79 3.2, 29.58 2.12, 31.86 -1.22 M20.62 4.27 C24.67 3.18, 29.73 1.37, 33.35 -0.84"
         stroke="#1e1e1e"
         stroke-width="4"
         fill="none"
         id="path33" />
    </g>
    <g
       transform="translate(1641.5772494051132 241.78049275357534) rotate(0 16.578782983312408 0.10859096948831848)"
       id="g35">
      <path
         d="M21.07 -5.17 C23.85 -2.84, 29.62 -0.99, 31.86 -1.22 M20.7 -4.69 C24.81 -2.43, 29.84 -0.9, 33.35 -0.84"
         stroke="#1e1e1e"
         stroke-width="4"
         fill="none"
         id="path34" />
    </g>
  </g>
  <mask
     id="mask36" />
  <g
     stroke-linecap="round"
     id="g40">
    <g
       transform="translate(1922.3970469046517 240.82718198184193) rotate(0 21.788565753908642 -1.8912230862653132)"
       id="g37">
      <path
         d="M-0.27 -0.82 C4.61 -1.11, 20.93 -0.72, 28.36 -1.39 C35.79 -2.06, 41.91 -4.59, 44.3 -4.84 M1.79 1.36 C6.63 0.71, 20.61 -2.2, 27.63 -3.1 C34.65 -4.01, 41.44 -3.76, 43.92 -4.08"
         stroke="#1e1e1e"
         stroke-width="4"
         fill="none"
         id="path36" />
    </g>
    <g
       transform="translate(1922.3970469046517 240.82718198184193) rotate(0 21.788565753908642 -1.8912230862653132)"
       id="g38">
      <path
         d="M36.15 -0.73 C38.82 -1.2, 39.24 -2.93, 44.5 -3.32 M36.36 -0.61 C38.32 -1.46, 40.29 -2.8, 44.27 -4.03"
         stroke="#1e1e1e"
         stroke-width="4"
         fill="none"
         id="path37" />
    </g>
    <g
       transform="translate(1922.3970469046517 240.82718198184193) rotate(0 21.788565753908642 -1.8912230862653132)"
       id="g39">
      <path
         d="M35.86 -6.09 C38.61 -5.36, 39.1 -5.88, 44.5 -3.32 M36.07 -5.98 C38.1 -5.57, 40.14 -5.64, 44.27 -4.03"
         stroke="#1e1e1e"
         stroke-width="4"
         fill="none"
         id="path38" />
    </g>
  </g>
  <mask
     id="mask40" />
  <g
     stroke-linecap="round"
     id="g44">
    <g
       transform="translate(2232.068615858795 248.85715824741237) rotate(0 50.93017389661031 -2.6825782305802477)"
       id="g41">
      <path
         d="M0.95 1.82 C9.52 1.59, 34.34 -2.47, 50.82 -3.32 C67.31 -4.18, 90.9 -2.65, 99.85 -3.29 M-1.98 0.34 C6.43 0.54, 31.58 0.31, 49.51 -1.03 C67.43 -2.37, 97.52 -6.95, 105.59 -7.7"
         stroke="#1e1e1e"
         stroke-width="4"
         fill="none"
         id="path40" />
    </g>
    <g
       transform="translate(2232.068615858795 248.85715824741237) rotate(0 50.93017389661031 -2.6825782305802477)"
       id="g42">
      <path
         d="M84.63 6.75 C85.22 -2.04, 98.24 1.33, 103 -7.88 M81.65 5.75 C90.99 -1.77, 99.47 -3.79, 106.64 -7.35"
         stroke="#1e1e1e"
         stroke-width="4"
         fill="none"
         id="path41" />
    </g>
    <g
       transform="translate(2232.068615858795 248.85715824741237) rotate(0 50.93017389661031 -2.6825782305802477)"
       id="g43">
      <path
         d="M82.41 -11.21 C83.37 -15.03, 97.01 -6.67, 103 -7.88 M79.43 -12.22 C89.19 -13.89, 98.4 -10.01, 106.64 -7.35"
         stroke="#1e1e1e"
         stroke-width="4"
         fill="none"
         id="path42" />
    </g>
  </g>
  <mask
     id="mask44" />
  <g
     stroke-linecap="round"
     transform="translate(2355.2073428481353 154.9499376009935) rotate(0 115.53514603808503 88.18333768366642)"
     id="g45">
    <path
       d="M38.23 21.68 C46.85 13.41, 63.03 7.25, 76.65 3.58 C90.27 -0.09, 105.89 -1.04, 119.94 -0.36 C133.99 0.32, 148.7 3.27, 160.95 7.67 C173.21 12.07, 183.58 18.74, 193.46 26.06 C203.35 33.38, 213.99 42.03, 220.26 51.6 C226.54 61.17, 230.08 73.18, 231.13 83.49 C232.17 93.81, 230.52 103.71, 226.56 113.51 C222.59 123.3, 216.13 133.59, 207.31 142.25 C198.49 150.9, 185.82 160.12, 173.62 165.42 C161.42 170.73, 147.63 172.87, 134.14 174.07 C120.65 175.27, 106.24 174.49, 92.68 172.61 C79.12 170.72, 64.86 167.99, 52.79 162.75 C40.73 157.51, 28.45 149.8, 20.31 141.16 C12.16 132.53, 6.98 121.32, 3.92 110.94 C0.87 100.55, 0.73 89.59, 1.98 78.86 C3.22 68.14, 4.12 56.46, 11.4 46.59 C18.67 36.72, 38.63 24.54, 45.6 19.62 C52.58 14.7, 52.22 16.03, 53.25 17.07 M73.52 3.59 C85.3 -0.77, 104.04 -1.43, 118.36 -0.64 C132.69 0.15, 146.91 4.44, 159.45 8.34 C171.98 12.24, 183.34 15.65, 193.56 22.76 C203.78 29.87, 214.27 41.32, 220.76 51.01 C227.25 60.71, 231.53 70.73, 232.52 80.96 C233.52 91.18, 230.93 101.77, 226.75 112.35 C222.58 122.92, 216.06 135.4, 207.5 144.39 C198.94 153.38, 187.84 161.23, 175.4 166.3 C162.96 171.36, 146.77 173.09, 132.87 174.77 C118.97 176.45, 104.92 178.39, 92.02 176.37 C79.13 174.35, 66.8 168.36, 55.5 162.67 C44.19 156.98, 33.1 151.12, 24.21 142.24 C15.32 133.36, 6.46 120.47, 2.17 109.37 C-2.13 98.27, -3.6 85.47, -1.57 75.64 C0.45 65.8, 7.4 58.97, 14.31 50.35 C21.22 41.73, 29.31 30.93, 39.87 23.91 C50.43 16.89, 71.86 10.68, 77.66 8.23 C83.45 5.78, 74.52 8.01, 74.62 9.23"
       stroke="#1e1e1e"
       stroke-width="4"
       fill="none"
       id="path44" />
  </g>
  <g
     transform="translate(2397.5096942823125 201.87823922087614) rotate(0 73.037109375 41.39999999999998)"
     id="g46">
    <text
       x="73.037109375"
       y="0"
       font-family="Helvetica, Segoe UI Emoji"
       font-size="36px"
       fill="#1e1e1e"
       text-anchor="middle"
       style="white-space: pre;"
       direction="ltr"
       dominant-baseline="text-before-edge"
       id="text45">OSC</text>
    <text
       x="73.037109375"
       y="41.4"
       font-family="Helvetica, Segoe UI Emoji"
       font-size="36px"
       fill="#1e1e1e"
       text-anchor="middle"
       style="white-space: pre;"
       direction="ltr"
       dominant-baseline="text-before-edge"
       id="text46">Message</text>
  </g>
  <g
     stroke-linecap="round"
     id="g50">
    <g
       transform="translate(2597.968700478843 234.88627283849746) rotate(0 26.733022206588657 0.26799720261544735)"
       id="g47">
      <path
         d="M2.69 -1.81 C6.71 -1.72, 14.04 2.1, 22.1 2.64 C30.16 3.18, 45.92 1.77, 51.06 1.44 M0.71 3.38 C4.52 2.4, 10.48 -0.95, 19.79 -1.94 C29.11 -2.94, 51.01 -2.21, 56.58 -2.6"
         stroke="#1e1e1e"
         stroke-width="4"
         fill="none"
         id="path46" />
    </g>
    <g
       transform="translate(2597.968700478843 234.88627283849746) rotate(0 26.733022206588657 0.26799720261544735)"
       id="g48">
      <path
         d="M39.88 2.84 C46.06 -1.27, 51.61 -0.44, 58.81 -0.99 M42.74 3.26 C46.22 2.21, 47.66 1.38, 56.15 -3.11"
         stroke="#1e1e1e"
         stroke-width="4"
         fill="none"
         id="path47" />
    </g>
    <g
       transform="translate(2597.968700478843 234.88627283849746) rotate(0 26.733022206588657 0.26799720261544735)"
       id="g49">
      <path
         d="M39.72 -7.9 C46.1 -9.56, 51.69 -6.28, 58.81 -0.99 M42.58 -7.48 C46.29 -6.22, 47.76 -4.73, 56.15 -3.11"
         stroke="#1e1e1e"
         stroke-width="4"
         fill="none"
         id="path48" />
    </g>
  </g>
  <mask
     id="mask50" />
  <g
     transform="translate(2382.086560717238 373.64563173164515) rotate(0 188.72543334960938 35.98700595842536)"
     id="g51">
    <text
       x="0"
       y="0"
       font-family="Helvetica, Segoe UI Emoji"
       font-size="31.293048659500304px"
       fill="#1e1e1e"
       text-anchor="start"
       style="white-space: pre;"
       direction="ltr"
       dominant-baseline="text-before-edge"
       id="text50">Eine Message pro Channel</text>
    <text
       x="0"
       y="35.98700595842535"
       font-family="Helvetica, Segoe UI Emoji"
       font-size="31.293048659500304px"
       fill="#1e1e1e"
       text-anchor="start"
       style="white-space: pre;"
       direction="ltr"
       dominant-baseline="text-before-edge"
       id="text51">&quot;/data/ + channel&quot;</text>
  </g>
  <g
     stroke-linecap="round"
     id="g55">
    <g
       transform="translate(2908.8159095635265 234.3714846059229) rotate(0 142.37309741137597 20.769262952164695)"
       id="g52">
      <path
         d="M-2.41 2.75 C34.7 6.31, 174.44 16.04, 222.54 22.1 C270.64 28.17, 275.4 35.87, 286.18 39.16 M1.48 1.78 C38.18 4.48, 172.74 11.63, 220.01 18.17 C267.29 24.7, 275.07 36.57, 285.15 40.99"
         stroke="#1e1e1e"
         stroke-width="4"
         fill="none"
         id="path51" />
    </g>
    <g
       transform="translate(2908.8159095635265 234.3714846059229) rotate(0 142.37309741137597 20.769262952164695)"
       id="g53">
      <path
         d="M259.58 34.77 C267.22 39.69, 269.72 42.81, 285.63 43.08 M255.05 36.59 C264.55 36.44, 275.77 38.6, 284.03 41.76"
         stroke="#1e1e1e"
         stroke-width="4"
         fill="none"
         id="path52" />
    </g>
    <g
       transform="translate(2908.8159095635265 234.3714846059229) rotate(0 142.37309741137597 20.769262952164695)"
       id="g54">
      <path
         d="M269.99 17.09 C274.66 27.05, 274.08 35.39, 285.63 43.08 M265.47 18.91 C271.93 24.43, 279.85 32.2, 284.03 41.76"
         stroke="#1e1e1e"
         stroke-width="4"
         fill="none"
         id="path53" />
    </g>
  </g>
  <mask
     id="mask55" />
  <g
     stroke-linecap="round"
     transform="translate(3206.2565505326065 185.52024829709808) rotate(0 180.07489836844547 113.38558614131432)"
     id="g56">
    <path
       d="M268.51 15.58 C285.61 19.41, 300.18 29.8, 312.81 38.12 C325.45 46.43, 336.43 55.2, 344.29 65.45 C352.16 75.71, 358.05 87.73, 360 99.65 C361.95 111.57, 359.85 125.59, 356 136.95 C352.14 148.31, 345.7 158.15, 336.86 167.8 C328.01 177.45, 316.49 186.65, 302.91 194.85 C289.33 203.05, 272.64 211.59, 255.4 217.01 C238.15 222.42, 217.85 226.01, 199.43 227.34 C181.01 228.67, 162.59 227.39, 144.87 224.98 C127.15 222.58, 109.62 218.81, 93.12 212.91 C76.61 207.02, 58.72 197.99, 45.86 189.62 C32.99 181.24, 23.54 172.9, 15.91 162.67 C8.28 152.43, 2.37 139.92, 0.1 128.18 C-2.18 116.45, -1.47 103.91, 2.24 92.27 C5.96 80.62, 13.41 68.96, 22.37 58.32 C31.34 47.69, 42.46 36.37, 56.02 28.44 C69.57 20.51, 86.61 15.35, 103.72 10.75 C120.84 6.15, 139.89 2.42, 158.7 0.84 C177.52 -0.75, 190.43 -5.3, 216.6 1.24 C242.78 7.79, 294.26 27.72, 315.77 40.08 C337.28 52.45, 347.87 74.23, 345.66 75.45 M89.21 18.11 C102.44 10.55, 120.99 5, 138.92 2.37 C156.84 -0.26, 177.55 1.1, 196.74 2.32 C215.94 3.55, 236.68 5, 254.09 9.7 C271.51 14.4, 288.02 23.11, 301.22 30.54 C314.43 37.97, 324.62 45.05, 333.32 54.26 C342.03 63.48, 348.94 73.71, 353.48 85.82 C358.02 97.93, 361.81 114.51, 360.55 126.93 C359.29 139.35, 353.17 149.63, 345.92 160.34 C338.67 171.04, 329.72 182.36, 317.04 191.16 C304.36 199.96, 286.35 207.34, 269.84 213.14 C253.32 218.94, 235.45 223.92, 217.95 225.96 C200.46 228, 183.04 226.31, 164.87 225.36 C146.7 224.42, 125.85 224.71, 108.92 220.29 C91.99 215.88, 77.27 207.37, 63.29 198.87 C49.32 190.37, 34.4 179.5, 25.05 169.27 C15.69 159.05, 11.05 149.03, 7.17 137.52 C3.29 126.01, 0.9 111.44, 1.78 100.21 C2.66 88.98, 4.79 80.34, 12.45 70.12 C20.1 59.9, 35.16 48.13, 47.69 38.88 C60.23 29.62, 81.04 18.14, 87.66 14.59 C94.28 11.04, 85.84 15.67, 87.4 17.56"
       stroke="#1e1e1e"
       stroke-width="4"
       fill="none"
       id="path55" />
  </g>
  <g
     transform="translate(3277.444579643246 278.0301175890777) rotate(0 109.0546875 20.700000000000045)"
     id="g57">
    <text
       x="109.0546875"
       y="0"
       font-family="Helvetica, Segoe UI Emoji"
       font-size="36px"
       fill="#1e1e1e"
       text-anchor="middle"
       style="white-space: pre;"
       direction="ltr"
       dominant-baseline="text-before-edge"
       id="text56">SuperCollider</text>
  </g>
</svg>
